<svg width="41" height="14" viewBox="0 0 41 14" fill="none" xmlns="http://www.w3.org/2000/svg">
<path d="M11.612 11.156C11.124 11.156 10.692 11.084 10.316 10.94C9.948 10.788 9.636 10.572 9.38 10.292C9.124 10.012 8.932 9.68 8.804 9.296C8.676 8.912 8.612 8.48 8.612 8C8.612 7.512 8.676 7.064 8.804 6.656C8.932 6.248 9.12 5.892 9.368 5.588C9.616 5.284 9.92 5.052 10.28 4.892C10.64 4.724 11.052 4.64 11.516 4.64C11.924 4.64 12.296 4.708 12.632 4.844C12.968 4.98 13.252 5.192 13.484 5.48C13.724 5.76 13.904 6.116 14.024 6.548C14.144 6.972 14.192 7.472 14.168 8.048L9.296 8.084V7.34L13.508 7.304L13.136 7.808C13.176 7.304 13.128 6.888 12.992 6.56C12.856 6.232 12.66 5.984 12.404 5.816C12.156 5.648 11.86 5.564 11.516 5.564C11.148 5.564 10.824 5.66 10.544 5.852C10.264 6.044 10.048 6.32 9.896 6.68C9.752 7.04 9.68 7.476 9.68 7.988C9.68 8.724 9.844 9.288 10.172 9.68C10.5 10.064 10.988 10.256 11.636 10.256C11.884 10.256 12.1 10.228 12.284 10.172C12.476 10.108 12.636 10.024 12.764 9.92C12.9 9.808 13.008 9.68 13.088 9.536C13.176 9.392 13.244 9.236 13.292 9.068L14.252 9.296C14.18 9.584 14.068 9.844 13.916 10.076C13.772 10.3 13.588 10.492 13.364 10.652C13.148 10.812 12.896 10.936 12.608 11.024C12.32 11.112 11.988 11.156 11.612 11.156ZM15.7214 11V7.64V4.796H16.7054L16.6094 6.956H16.8134C16.8854 6.484 16.9974 6.076 17.1494 5.732C17.3014 5.388 17.5014 5.12 17.7494 4.928C18.0054 4.736 18.3214 4.64 18.6974 4.64C18.7774 4.64 18.8694 4.648 18.9734 4.664C19.0774 4.672 19.1974 4.7 19.3334 4.748L19.2734 5.888C19.1534 5.84 19.0334 5.808 18.9134 5.792C18.7934 5.768 18.6774 5.756 18.5654 5.756C18.2534 5.756 17.9814 5.856 17.7494 6.056C17.5254 6.256 17.3374 6.528 17.1854 6.872C17.0334 7.208 16.9094 7.588 16.8134 8.012V11H15.7214ZM20.5264 11V4.796H21.6184V11H20.5264ZM21.0784 3.716C20.8224 3.716 20.6304 3.664 20.5024 3.56C20.3744 3.456 20.3104 3.3 20.3104 3.092C20.3104 2.884 20.3744 2.728 20.5024 2.624C20.6304 2.52 20.8184 2.468 21.0664 2.468C21.3224 2.468 21.5144 2.52 21.6424 2.624C21.7704 2.728 21.8344 2.884 21.8344 3.092C21.8344 3.292 21.7704 3.448 21.6424 3.56C21.5144 3.664 21.3264 3.716 21.0784 3.716ZM25.4464 11.12C24.8704 11.12 24.4424 10.964 24.1624 10.652C23.8824 10.34 23.7424 9.864 23.7424 9.224V5.708H22.8064L22.8184 4.796H23.4064C23.6064 4.796 23.7504 4.76 23.8384 4.688C23.9344 4.616 23.9904 4.496 24.0064 4.328L24.1264 3.392H24.7984V4.796H26.5864V5.72H24.7984V9.2C24.7984 9.52 24.8704 9.752 25.0144 9.896C25.1664 10.032 25.3824 10.1 25.6624 10.1C25.8144 10.1 25.9704 10.08 26.1304 10.04C26.2984 10 26.4624 9.92 26.6224 9.8V10.892C26.3904 10.98 26.1744 11.04 25.9744 11.072C25.7824 11.104 25.6064 11.12 25.4464 11.12ZM29.3955 11.156C29.0595 11.156 28.7555 11.092 28.4835 10.964C28.2115 10.828 27.9955 10.632 27.8355 10.376C27.6755 10.112 27.5955 9.78 27.5955 9.38C27.5955 9.084 27.6475 8.824 27.7515 8.6C27.8635 8.376 28.0315 8.184 28.2555 8.024C28.4875 7.864 28.7835 7.732 29.1435 7.628C29.5035 7.524 29.9435 7.436 30.4635 7.364C30.7595 7.324 30.9995 7.284 31.1835 7.244C31.3755 7.204 31.5155 7.14 31.6035 7.052C31.6915 6.956 31.7355 6.816 31.7355 6.632C31.7355 6.328 31.6315 6.072 31.4235 5.864C31.2155 5.656 30.8875 5.552 30.4395 5.552C30.2075 5.552 29.9715 5.592 29.7315 5.672C29.4915 5.752 29.2795 5.888 29.0955 6.08C28.9195 6.264 28.8075 6.524 28.7595 6.86L27.7515 6.524C27.8155 6.236 27.9195 5.976 28.0635 5.744C28.2155 5.512 28.4075 5.316 28.6395 5.156C28.8715 4.988 29.1395 4.86 29.4435 4.772C29.7555 4.684 30.0995 4.64 30.4755 4.64C30.9955 4.64 31.4275 4.728 31.7715 4.904C32.1235 5.08 32.3835 5.352 32.5515 5.72C32.7275 6.08 32.8155 6.544 32.8155 7.112V8.492C32.8155 8.74 32.8195 9.012 32.8275 9.308C32.8435 9.596 32.8635 9.888 32.8875 10.184C32.9115 10.472 32.9355 10.744 32.9595 11H31.9515C31.9275 10.744 31.9035 10.488 31.8795 10.232C31.8635 9.976 31.8515 9.72 31.8435 9.464H31.6875C31.5675 9.76 31.4075 10.036 31.2075 10.292C31.0075 10.548 30.7555 10.756 30.4515 10.916C30.1555 11.076 29.8035 11.156 29.3955 11.156ZM29.7195 10.268C29.8955 10.268 30.0715 10.24 30.2475 10.184C30.4315 10.128 30.6115 10.036 30.7875 9.908C30.9715 9.78 31.1435 9.616 31.3035 9.416C31.4715 9.216 31.6195 8.976 31.7475 8.696V7.496L32.0595 7.556C31.9315 7.684 31.7595 7.78 31.5435 7.844C31.3355 7.908 31.1035 7.96 30.8475 8C30.5915 8.04 30.3355 8.084 30.0795 8.132C29.8235 8.172 29.5875 8.236 29.3715 8.324C29.1635 8.404 28.9955 8.52 28.8675 8.672C28.7395 8.824 28.6755 9.032 28.6755 9.296C28.6755 9.616 28.7715 9.86 28.9635 10.028C29.1555 10.188 29.4075 10.268 29.7195 10.268ZM36.9395 11.156C36.5075 11.156 36.1235 11.108 35.7875 11.012C35.4515 10.924 35.1715 10.796 34.9475 10.628C34.7235 10.452 34.5515 10.244 34.4315 10.004C34.3115 9.764 34.2475 9.5 34.2395 9.212L35.1635 8.972C35.1475 9.236 35.2115 9.468 35.3555 9.668C35.5075 9.86 35.7195 10.008 35.9915 10.112C36.2715 10.216 36.6075 10.268 36.9995 10.268C37.4715 10.268 37.8355 10.188 38.0915 10.028C38.3555 9.868 38.4875 9.648 38.4875 9.368C38.4875 9.144 38.4155 8.972 38.2715 8.852C38.1275 8.724 37.9275 8.624 37.6715 8.552C37.4235 8.472 37.1275 8.4 36.7835 8.336C36.4955 8.272 36.2075 8.2 35.9195 8.12C35.6315 8.04 35.3675 7.936 35.1275 7.808C34.8955 7.672 34.7075 7.496 34.5635 7.28C34.4195 7.064 34.3475 6.796 34.3475 6.476C34.3475 6.1 34.4475 5.776 34.6475 5.504C34.8475 5.232 35.1315 5.02 35.4995 4.868C35.8675 4.716 36.3075 4.64 36.8195 4.64C37.3315 4.64 37.7675 4.72 38.1275 4.88C38.4875 5.032 38.7715 5.248 38.9795 5.528C39.1875 5.808 39.3035 6.136 39.3275 6.512L38.3795 6.752C38.3715 6.488 38.2995 6.264 38.1635 6.08C38.0355 5.896 37.8515 5.76 37.6115 5.672C37.3715 5.576 37.0915 5.528 36.7715 5.528C36.3475 5.528 36.0115 5.608 35.7635 5.768C35.5155 5.928 35.3915 6.148 35.3915 6.428C35.3915 6.636 35.4635 6.804 35.6075 6.932C35.7595 7.06 35.9635 7.16 36.2195 7.232C36.4755 7.304 36.7595 7.376 37.0715 7.448C37.3915 7.512 37.6955 7.584 37.9835 7.664C38.2795 7.744 38.5435 7.848 38.7755 7.976C39.0075 8.104 39.1915 8.276 39.3275 8.492C39.4635 8.7 39.5315 8.968 39.5315 9.296C39.5315 9.704 39.4235 10.048 39.2075 10.328C38.9915 10.6 38.6875 10.808 38.2955 10.952C37.9115 11.088 37.4595 11.156 36.9395 11.156Z" fill="white"/>
<path d="M0.0662438 1.00389C1.15054 0.96841 2.03312 1.16847 2.90751 1.9103C3.65559 2.69259 4.08153 3.86116 4.5374 4.85121C4.64719 5.08963 4.75763 5.32769 4.86819 5.5657C5.04297 5.9425 5.21583 6.32027 5.38791 6.6985C5.47568 6.88985 5.5653 7.08005 5.65549 7.2701C5.70561 7.37844 5.75568 7.4868 5.80569 7.5952C5.87006 7.73179 5.87006 7.73179 5.93573 7.87113C6.06063 8.27874 5.98949 8.57309 5.84221 8.96388C5.80204 9.04908 5.76187 9.13428 5.72048 9.22207C5.67667 9.31559 5.63287 9.40912 5.58774 9.50548C5.54177 9.60154 5.49581 9.6976 5.44845 9.79657C5.40225 9.89517 5.35612 9.9938 5.31005 10.0925C4.97041 10.8119 4.97041 10.8119 4.79534 11C4.60266 10.9834 4.5174 10.9514 4.38926 10.794C4.15746 10.3673 3.95395 9.93236 3.76055 9.4842C3.36764 8.58869 2.95971 7.70178 2.54788 6.81618C2.51571 6.74698 2.48354 6.67779 2.45039 6.6065C2.28451 6.24989 2.11848 5.89336 1.95234 5.5369C1.78142 5.17018 1.61079 4.80331 1.44024 4.43641C1.30744 4.15082 1.17451 3.86531 1.04153 3.57983C0.978504 3.44449 0.915526 3.30912 0.852596 3.17373C0.765034 2.9854 0.677275 2.79718 0.589466 2.60899C0.551364 2.52688 0.551364 2.52688 0.512493 2.44312C0.390239 2.18163 0.262977 1.92755 0.122928 1.67651C-0.0100319 1.41356 -0.0100319 1.41356 0.00903704 1.17288C0.0279153 1.11711 0.0467935 1.06134 0.0662438 1.00389Z" fill="white"/>
<path d="M9.34471 1.00067C9.43194 1.00121 9.43194 1.00121 9.52093 1.00176C9.66352 1.0027 9.80612 1.00413 9.94872 1.00566C10.0343 1.33161 10.0148 1.49143 9.87444 1.79213C9.82297 1.90435 9.82297 1.90435 9.77047 2.01885C9.73229 2.09918 9.69411 2.17952 9.65478 2.26229C9.61566 2.34663 9.57655 2.43098 9.53625 2.51788C9.41034 2.78861 9.283 3.05852 9.15567 3.32847C9.07326 3.5056 8.99094 3.68277 8.90871 3.86C8.41527 4.91932 7.90205 5.96488 7.3667 7C6.98546 6.92909 6.77176 6.80266 6.53158 6.46238C6.024 5.63586 5.9338 4.77762 6.03881 3.80302C6.28267 2.72423 6.94866 1.89264 7.80933 1.32536C8.31267 1.03173 8.78528 0.994064 9.34471 1.00067Z" fill="white"/>
</svg>
